<?xml version="1.0" encoding="UTF-8"?>
<svg xmlns="http://www.w3.org/2000/svg" width="128" height="128" viewBox="0 0 128 128">
  <defs>
    <linearGradient id="diskGradient" x1="0%" y1="0%" x2="100%" y2="100%">
      <stop offset="0%" style="stop-color:#3584e4;stop-opacity:1" />
      <stop offset="100%" style="stop-color:#1c71d8;stop-opacity:1" />
    </linearGradient>
    <linearGradient id="gamepadGradient" x1="0%" y1="0%" x2="100%" y2="100%">
      <stop offset="0%" style="stop-color:#c01c28;stop-opacity:1" />
      <stop offset="100%" style="stop-color:#a51d2d;stop-opacity:1" />
    </linearGradient>
  </defs>
  
  <!-- Background circle -->
  <circle cx="64" cy="64" r="56" fill="#f6f5f4" stroke="#deddda" stroke-width="2"/>
  
  <!-- Storage disk -->
  <ellipse cx="64" cy="50" rx="35" ry="28" fill="url(#diskGradient)" stroke="#1c71d8" stroke-width="2"/>
  <ellipse cx="64" cy="46" rx="35" ry="28" fill="#62a0ea" opacity="0.3"/>
  
  <!-- Disk hole -->
  <ellipse cx="64" cy="50" rx="8" ry="6" fill="#ffffff"/>
  <ellipse cx="64" cy="48" rx="8" ry="6" fill="#f6f5f4"/>
  
  <!-- Game controller icon -->
  <g transform="translate(20, 75) scale(0.6)">
    <rect x="10" y="15" width="80" height="35" rx="17" ry="17" fill="url(#gamepadGradient)"/>
    <!-- Left shoulder -->
    <rect x="5" y="10" width="25" height="15" rx="7" ry="7" fill="url(#gamepadGradient)"/>
    <!-- Right shoulder -->
    <rect x="70" y="10" width="25" height="15" rx="7" ry="7" fill="url(#gamepadGradient)"/>
    
    <!-- D-pad -->
    <rect x="20" y="22" width="12" height="4" rx="2" ry="2" fill="#ffffff"/>
    <rect x="24" y="18" width="4" height="12" rx="2" ry="2" fill="#ffffff"/>
    
    <!-- Action buttons -->
    <circle cx="70" cy="24" r="4" fill="#ffffff"/>
    <circle cx="78" cy="32" r="4" fill="#ffffff"/>
    
    <!-- Analog sticks -->
    <circle cx="40" cy="35" r="6" fill="#2e3436"/>
    <circle cx="60" cy="35" r="6" fill="#2e3436"/>
  </g>
  
  <!-- Save/folder indicator -->
  <g transform="translate(85, 25) scale(0.8)">
    <path d="M2 4 L2 14 L18 14 L18 7 L15 4 Z" fill="#f9f06b" stroke="#f5c211" stroke-width="1"/>
    <rect x="4" y="6" width="12" height="6" fill="#ffffff" opacity="0.7"/>
  </g>
</svg>
